<svg height="1326" width="720" xmlns="http://www.w3.org/2000/svg">
<rect height="1326" fill="#555" width="720"></rect>
<text fill="#7f7" font-family="Courier New" font-size="12" xml:space="preserve">
<tspan x="10" y="26">4 megabytes installed</tspan>
<tspan x="10" y="42"></tspan>
<tspan x="10" y="58">node_modules</tspan>
<tspan x="10" y="74">└─┬ gulp-concat-util@0.5.5 </tspan>
<tspan x="10" y="90">  ├─┬ concat-with-sourcemaps@1.0.4 </tspan>
<tspan x="10" y="106">  │ └── source-map@0.5.6 </tspan>
<tspan x="10" y="122">  ├─┬ gulp-if@2.0.2 </tspan>
<tspan x="10" y="138">  │ ├─┬ gulp-match@1.0.3 </tspan>
<tspan x="10" y="154">  │ │ └─┬ minimatch@3.0.3 </tspan>
<tspan x="10" y="170">  │ │   └─┬ brace-expansion@1.1.7 </tspan>
<tspan x="10" y="186">  │ │     ├── balanced-match@0.4.2 </tspan>
<tspan x="10" y="202">  │ │     └── concat-map@0.0.1 </tspan>
<tspan x="10" y="218">  │ └─┬ ternary-stream@2.0.1 </tspan>
<tspan x="10" y="234">  │   ├─┬ duplexify@3.5.0 </tspan>
<tspan x="10" y="250">  │   │ ├─┬ end-of-stream@1.0.0 </tspan>
<tspan x="10" y="266">  │   │ │ └─┬ once@1.3.3 </tspan>
<tspan x="10" y="282">  │   │ │   └── wrappy@1.0.2 </tspan>
<tspan x="10" y="298">  │   │ └── stream-shift@1.0.0 </tspan>
<tspan x="10" y="314">  │   ├── fork-stream@0.0.4 </tspan>
<tspan x="10" y="330">  │   └── merge-stream@1.0.1 </tspan>
<tspan x="10" y="346">  ├─┬ gulp-util@3.0.8 </tspan>
<tspan x="10" y="362">  │ ├── array-differ@1.0.0 </tspan>
<tspan x="10" y="378">  │ ├── array-uniq@1.0.3 </tspan>
<tspan x="10" y="394">  │ ├── beeper@1.1.1 </tspan>
<tspan x="10" y="410">  │ ├─┬ chalk@1.1.3 </tspan>
<tspan x="10" y="426">  │ │ ├── ansi-styles@2.2.1 </tspan>
<tspan x="10" y="442">  │ │ ├── escape-string-regexp@1.0.5 </tspan>
<tspan x="10" y="458">  │ │ ├─┬ has-ansi@2.0.0 </tspan>
<tspan x="10" y="474">  │ │ │ └── ansi-regex@2.1.1 </tspan>
<tspan x="10" y="490">  │ │ ├── strip-ansi@3.0.1 </tspan>
<tspan x="10" y="506">  │ │ └── supports-color@2.0.0 </tspan>
<tspan x="10" y="522">  │ ├── dateformat@2.0.0 </tspan>
<tspan x="10" y="538">  │ ├─┬ fancy-log@1.3.0 </tspan>
<tspan x="10" y="554">  │ │ └── time-stamp@1.0.1 </tspan>
<tspan x="10" y="570">  │ ├─┬ gulplog@1.0.0 </tspan>
<tspan x="10" y="586">  │ │ └── glogg@1.0.0 </tspan>
<tspan x="10" y="602">  │ ├─┬ has-gulplog@0.1.0 </tspan>
<tspan x="10" y="618">  │ │ └── sparkles@1.0.0 </tspan>
<tspan x="10" y="634">  │ ├── lodash._reescape@3.0.0 </tspan>
<tspan x="10" y="650">  │ ├── lodash._reevaluate@3.0.0 </tspan>
<tspan x="10" y="666">  │ ├── lodash._reinterpolate@3.0.0 </tspan>
<tspan x="10" y="682">  │ ├─┬ lodash.template@3.6.2 </tspan>
<tspan x="10" y="698">  │ │ ├── lodash._basecopy@3.0.1 </tspan>
<tspan x="10" y="714">  │ │ ├── lodash._basetostring@3.0.1 </tspan>
<tspan x="10" y="730">  │ │ ├── lodash._basevalues@3.0.0 </tspan>
<tspan x="10" y="746">  │ │ ├── lodash._isiterateecall@3.0.9 </tspan>
<tspan x="10" y="762">  │ │ ├─┬ lodash.escape@3.2.0 </tspan>
<tspan x="10" y="778">  │ │ │ └── lodash._root@3.0.1 </tspan>
<tspan x="10" y="794">  │ │ ├── lodash.restparam@3.6.1 </tspan>
<tspan x="10" y="810">  │ │ └── lodash.templatesettings@3.1.1 </tspan>
<tspan x="10" y="826">  │ ├── minimist@1.2.0 </tspan>
<tspan x="10" y="842">  │ ├─┬ multipipe@0.1.2 </tspan>
<tspan x="10" y="858">  │ │ └─┬ duplexer2@0.0.2 </tspan>
<tspan x="10" y="874">  │ │   └─┬ readable-stream@1.1.14 </tspan>
<tspan x="10" y="890">  │ │     ├── isarray@0.0.1 </tspan>
<tspan x="10" y="906">  │ │     └── string_decoder@0.10.31 </tspan>
<tspan x="10" y="922">  │ ├── object-assign@3.0.0 </tspan>
<tspan x="10" y="938">  │ ├── replace-ext@0.0.1 </tspan>
<tspan x="10" y="954">  │ └─┬ vinyl@0.5.3 </tspan>
<tspan x="10" y="970">  │   ├── clone@1.0.2 </tspan>
<tspan x="10" y="986">  │   └── clone-stats@0.0.1 </tspan>
<tspan x="10" y="1002">  ├─┬ lodash.assign@3.2.0 </tspan>
<tspan x="10" y="1018">  │ ├── lodash._baseassign@3.2.0 </tspan>
<tspan x="10" y="1034">  │ ├─┬ lodash._createassigner@3.1.1 </tspan>
<tspan x="10" y="1050">  │ │ └── lodash._bindcallback@3.0.1 </tspan>
<tspan x="10" y="1066">  │ └─┬ lodash.keys@3.1.2 </tspan>
<tspan x="10" y="1082">  │   ├── lodash._getnative@3.9.1 </tspan>
<tspan x="10" y="1098">  │   ├── lodash.isarguments@3.1.0 </tspan>
<tspan x="10" y="1114">  │   └── lodash.isarray@3.0.4 </tspan>
<tspan x="10" y="1130">  ├─┬ stream-combiner2@1.1.1 </tspan>
<tspan x="10" y="1146">  │ ├── duplexer2@0.1.4 </tspan>
<tspan x="10" y="1162">  │ └─┬ readable-stream@2.2.9 </tspan>
<tspan x="10" y="1178">  │   ├── buffer-shims@1.0.0 </tspan>
<tspan x="10" y="1194">  │   ├── core-util-is@1.0.2 </tspan>
<tspan x="10" y="1210">  │   ├── inherits@2.0.3 </tspan>
<tspan x="10" y="1226">  │   ├── isarray@1.0.0 </tspan>
<tspan x="10" y="1242">  │   ├── process-nextick-args@1.0.7 </tspan>
<tspan x="10" y="1258">  │   ├── string_decoder@1.0.0 </tspan>
<tspan x="10" y="1274">  │   └── util-deprecate@1.0.2 </tspan>
<tspan x="10" y="1290">  └─┬ through2@2.0.3 </tspan>
<tspan x="10" y="1306">    └── xtend@4.0.1</tspan>
</text>
</svg>
